<?xml version="1.0" encoding="UTF-8"?>
<svg version="1.1" xmlns="http://www.w3.org/2000/svg" width="512" height="512">
<path d="M0 0 C1.03495605 0.45310547 2.06991211 0.90621094 3.13623047 1.37304688 C4.25529785 1.88029297 5.37436523 2.38753906 6.52734375 2.91015625 C7.75081326 3.45134523 8.97495766 3.99101058 10.19970703 4.52929688 C12.86986945 5.70506779 15.5363613 6.88869339 18.20068359 8.07763672 C22.5762596 10.02692571 26.96611778 11.94251578 31.359375 13.8515625 C32.12349701 14.18367737 32.88761902 14.51579224 33.67489624 14.85797119 C35.25508828 15.54474026 36.83529892 16.23146652 38.41552734 16.91815186 C42.57571886 18.72770948 46.73300641 20.5439157 50.890625 22.359375 C60.97142008 26.75985852 71.05769845 31.14768236 81.14535522 35.53240967 C84.02449069 36.78391608 86.90349423 38.03572554 89.7824707 39.28759766 C98.84245084 43.2268232 107.90341684 47.16375228 116.9669342 51.09483337 C121.14852725 52.90867515 125.32964064 54.72362108 129.51071167 56.53866577 C131.49250668 57.39861512 133.47453495 58.25802716 135.45681763 59.11685181 C141.46612768 61.72045475 147.47011447 64.33564428 153.46484375 66.97265625 C154.16083679 67.27788208 154.85682983 67.58310791 155.57391357 67.89758301 C157.41489348 68.70866918 159.25063342 69.53162002 161.0859375 70.35546875 C162.06876709 70.7952002 163.05159668 71.23493164 164.06420898 71.68798828 C167.13200851 73.32968065 168.91077252 74.8645138 170.46484375 77.97265625 C170.56478965 79.35495141 170.60420751 80.74188012 170.61201477 82.12776184 C170.62274773 83.43365517 170.62274773 83.43365517 170.63369751 84.76593018 C170.63638641 85.72336121 170.63907532 86.68079224 170.6418457 87.66723633 C170.6484169 88.67386826 170.6549881 89.68050018 170.66175842 90.71763611 C170.68151925 94.05915393 170.6931598 97.40062678 170.703125 100.7421875 C170.70720053 101.88149908 170.71127605 103.02081066 170.71547508 104.19464684 C170.73634699 110.22391963 170.75064427 116.25316958 170.76000977 122.2824707 C170.77108082 128.51709962 170.8054859 134.75137227 170.84518147 140.98587513 C170.87129761 145.77366307 170.87969713 150.56136546 170.88329124 155.34921837 C170.88816957 157.64775691 170.89981878 159.94629133 170.91832924 162.24476051 C170.9426153 165.46009365 170.9417747 168.67449625 170.93481445 171.88989258 C170.95402954 173.31693008 170.95402954 173.31693008 170.97363281 174.77279663 C170.93993236 179.03911731 170.85407447 181.34566124 168.56047058 185.04032898 C166.05381353 187.35165736 165.04611133 187.90807096 161.65234375 188.28515625 C157.73407925 187.90101267 156.25191108 186.68009308 153.46484375 183.97265625 C151.8614034 180.76577554 152.3356163 177.28082778 152.35131836 173.75927734 C152.35117233 172.91042465 152.35102631 172.06157196 152.35087585 171.18699646 C152.35157409 168.37333648 152.35936235 165.55974221 152.3671875 162.74609375 C152.369052 160.79839107 152.37047575 158.85068793 152.37147522 156.90298462 C152.37529792 151.77045401 152.3851261 146.63795158 152.3961792 141.50543213 C152.40639863 136.27055238 152.41097398 131.03566809 152.41601562 125.80078125 C152.42674858 115.52472718 152.44382205 105.24869406 152.46484375 94.97265625 C151.57122131 95.38090134 151.57122131 95.38090134 150.6595459 95.7973938 C139.46687405 100.90725014 128.27070572 105.99243555 116.96484375 110.84765625 C115.0701252 111.66472803 113.17579868 112.48270436 111.28149414 113.30073547 C109.9122837 113.89200503 108.54297863 114.4830555 107.17358398 115.07389832 C98.56952255 118.78743329 89.97698665 122.52748012 81.38363647 126.26571655 C78.46085827 127.53688961 75.53772658 128.80724651 72.61450195 130.07739258 C63.34515308 134.10565141 54.07818644 138.13916834 44.81881714 142.19032288 C40.61013002 144.03134154 36.40020917 145.86952908 32.19018555 147.70748901 C30.18403111 148.5842646 28.17848431 149.46243199 26.17358398 150.34207153 C23.38027124 151.56751367 20.58489686 152.78813664 17.7890625 154.0078125 C16.97539719 154.36629272 16.16173187 154.72477295 15.32341003 155.09411621 C14.54983658 155.43052124 13.77626312 155.76692627 12.97924805 156.11352539 C12.32079391 156.40183731 11.66233978 156.69014923 10.9839325 156.98719788 C7.20013455 158.4674059 3.31936426 159.68781608 -0.53515625 160.97265625 C-0.53515625 218.06265625 -0.53515625 275.15265625 -0.53515625 333.97265625 C9.03484375 329.68265625 18.60484375 325.39265625 28.46484375 320.97265625 C30.11484375 320.64265625 31.76484375 320.31265625 33.46484375 319.97265625 C33.55121094 319.15925781 33.63757813 318.34585937 33.7265625 317.5078125 C37.35250571 287.93475277 51.78430698 261.11896066 75.33496094 242.49365234 C95.78632685 227.37116347 118.62091445 219.56214084 144.02734375 219.59765625 C145.01604462 219.59847198 145.01604462 219.59847198 146.02471924 219.5993042 C157.01253286 219.64087054 167.01341642 220.60081134 177.46484375 223.97265625 C178.47925537 224.28614014 178.47925537 224.28614014 179.51416016 224.60595703 C206.30335625 233.06670384 229.71790221 252.65816945 242.9140625 277.45703125 C256.7962059 304.83617495 260.20360091 336.49644061 250.83154297 365.96386719 C245.4686419 381.91196998 236.8247892 395.67738595 225.46484375 407.97265625 C224.81 408.70871094 224.15515625 409.44476563 223.48046875 410.203125 C210.27551449 424.33919783 191.89505096 433.83477378 173.46484375 438.97265625 C171.83482422 439.4521875 171.83482422 439.4521875 170.171875 439.94140625 C141.65557302 447.0294629 111.88365658 441.0531611 86.6484375 426.9375 C60.62168449 410.87436286 43.13757795 386.45210868 35.46484375 356.97265625 C34.13358797 351.19458795 33.430788 345.90242323 33.46484375 339.97265625 C32.32007568 340.48763672 31.17530762 341.00261719 29.99584961 341.53320312 C25.73194216 343.44721411 21.46056523 345.34402861 17.18676758 347.23583984 C15.34094646 348.05573724 13.49716097 348.88023388 11.65551758 349.70947266 C9.00217991 350.90322382 6.34186996 352.08003644 3.6796875 353.25390625 C2.86273911 353.6257605 2.04579071 353.99761475 1.2040863 354.3807373 C-5.05777538 357.11211628 -9.98357529 358.11418921 -16.53808594 355.55834961 C-18.0169234 354.90618645 -19.48964994 354.24004639 -20.95703125 353.5625 C-21.76146667 353.20398453 -22.5659021 352.84546906 -23.39471436 352.47608948 C-26.03016874 351.29890704 -28.65737858 350.10436342 -31.28515625 348.91015625 C-34.07494534 347.66004635 -36.86680052 346.41462761 -39.65869141 345.16921997 C-41.55097309 344.32461171 -43.44257165 343.47847136 -45.33349609 342.63082886 C-53.16581885 339.12193535 -61.04021587 335.72040693 -68.93875122 332.36373901 C-84.20908146 325.87304285 -99.40715472 319.22267215 -114.59375 312.53881836 C-124.28042625 308.27614857 -133.97474371 304.03271416 -143.68911743 299.83352661 C-146.67782208 298.54097892 -149.66485699 297.24457839 -152.65234375 295.94921875 C-157.36009338 293.90941713 -162.07478882 291.88663925 -166.79296875 289.87109375 C-169.0821515 288.88439353 -171.37121934 287.89742664 -173.66015625 286.91015625 C-174.70429688 286.46873291 -175.7484375 286.02730957 -176.82421875 285.57250977 C-177.78328125 285.15670654 -178.74234375 284.74090332 -179.73046875 284.3125 C-180.56594238 283.95534912 -181.40141602 283.59819824 -182.26220703 283.23022461 C-185.02162584 281.70350428 -186.58232582 280.4794564 -188.53515625 277.97265625 C-188.9301293 275.1499353 -189.08013884 272.716512 -189.04981995 269.89454651 C-189.05676547 269.07386261 -189.063711 268.25317872 -189.070867 267.40762562 C-189.08918424 264.65371796 -189.07885974 261.90066717 -189.06860352 259.14672852 C-189.07565962 257.17397414 -189.08440333 255.20122517 -189.0947113 253.22848511 C-189.11724993 247.8668986 -189.11425505 242.50560666 -189.10538983 237.14399076 C-189.1002866 232.67065002 -189.10756712 228.19736496 -189.11486191 223.72402996 C-189.13187522 213.17233459 -189.12828071 202.62078378 -189.11157227 192.0690918 C-189.09464865 181.17741378 -189.1104857 170.28613647 -189.14279515 159.39450222 C-189.16947144 150.0483184 -189.17677236 140.70225945 -189.16828007 131.35604137 C-189.16334524 125.7717458 -189.16559658 120.18769139 -189.18606758 114.60342598 C-189.20439383 109.35265153 -189.19850321 104.10245449 -189.17386818 98.85171127 C-189.16885061 96.92357994 -189.17237447 94.99540484 -189.18501663 93.06730843 C-189.20090118 90.43678783 -189.1860409 87.8081793 -189.16334534 85.17774963 C-189.18109893 84.03056775 -189.18109893 84.03056775 -189.19921118 82.86021048 C-189.1303619 78.93804742 -188.69340675 77.16996423 -186.20950222 74.07301235 C-183.05588975 71.59625382 -179.80748452 69.99286762 -176.1328125 68.46875 C-175.40033295 68.15331238 -174.66785339 67.83787476 -173.91317749 67.51287842 C-171.47923781 66.46758313 -169.03853289 65.43913622 -166.59765625 64.41015625 C-164.85565637 63.66509084 -163.11421317 62.91872272 -161.37329102 62.17114258 C-157.67058513 60.58236774 -153.96550095 58.99932662 -150.25878906 57.41992188 C-141.76551855 53.79540286 -133.30357552 50.09890707 -124.83862305 46.40887451 C-119.99671589 44.29922764 -115.15256816 42.19473856 -110.30859375 40.08984375 C-108.34862659 39.23797005 -106.38866566 38.38608201 -104.42871094 37.53417969 C-101.48165129 36.25329009 -98.53458785 34.97240921 -95.58752441 33.69152832 C-94.1292926 33.05773254 -94.1292926 33.05773254 -92.64160156 32.41113281 C-91.67066055 31.98914108 -90.69971954 31.56714935 -89.69935608 31.13237 C-87.74245931 30.28176672 -85.78562124 29.43102841 -83.82884216 28.58015442 C-79.01311625 26.48620647 -74.19659089 24.39414507 -69.37817383 22.30639648 C-60.91559701 18.63696638 -52.46144295 14.95237885 -44.04252625 11.18363953 C-40.43784917 9.57057226 -36.82875502 7.96752186 -33.2194519 6.36483765 C-31.5343427 5.61279465 -29.85158476 4.85545726 -28.17141724 4.09243774 C-25.86344062 3.04445855 -23.54810172 2.01468835 -21.23046875 0.98828125 C-20.56487442 0.67998886 -19.89928009 0.37169647 -19.21351624 0.05406189 C-12.51439124 -2.87057975 -6.73281234 -3.00853929 0 0 Z M78.46484375 264.97265625 C77.85125 265.51148438 77.23765625 266.0503125 76.60546875 266.60546875 C62.30337152 279.66105292 52.37855082 302.44488718 51.32446289 321.51196289 C50.36774011 350.02516475 56.68191865 373.21375984 76.01953125 394.828125 C91.9084653 411.52301948 114.35255274 423.39426976 137.703125 424.2109375 C166.85072698 424.74224895 190.84053863 416.04546927 212.15234375 395.59765625 C231.00984893 376.1446509 238.05501375 351.67888466 237.74609375 325.1875 C237.36608634 312.72135681 233.8876793 301.18302097 228.46484375 289.97265625 C227.80355469 288.59013672 227.80355469 288.59013672 227.12890625 287.1796875 C223.46090725 279.9956784 218.82470914 273.97744853 213.46484375 267.97265625 C212.32208984 266.68681641 212.32208984 266.68681641 211.15625 265.375 C204.6959081 258.51154973 197.54543704 253.68789804 189.46484375 248.97265625 C188.62179687 248.47894531 187.77875 247.98523438 186.91015625 247.4765625 C150.68754282 227.90171585 107.28440016 237.46307968 78.46484375 264.97265625 Z " fill="#0D67BD" transform="translate(222.53515625,36.02734375)"/>
<path d="M0 0 C3.4343947 1.13348697 6.80322897 2.27361904 10.11157227 3.73657227 C10.86418839 4.06774551 11.6168045 4.39891876 12.39222717 4.74012756 C13.19220627 5.09529953 13.99218536 5.4504715 14.81640625 5.81640625 C16.09402077 6.37943703 16.09402077 6.37943703 17.39744568 6.95384216 C20.12025463 8.15419962 22.84146649 9.35812398 25.5625 10.5625 C29.10480456 12.12780996 32.64784198 13.69145022 36.19140625 15.25390625 C37.06729401 15.64027252 37.94318176 16.02663879 38.84561157 16.42471313 C48.53252891 20.68912329 58.26305054 24.85135444 68 29 C68.00586624 29.69046921 68.01173248 30.38093842 68.01777649 31.09233093 C68.0817108 38.2788651 68.16613123 45.46495148 68.26245117 52.65112305 C68.29735011 55.33306601 68.3249887 58.01493801 68.34643555 60.69702148 C68.37997146 64.55222433 68.43228927 68.40678475 68.48828125 72.26171875 C68.49467117 73.46084396 68.5010611 74.65996918 68.50764465 75.89543152 C68.52743881 77.01621597 68.54723297 78.13700043 68.56762695 79.29174805 C68.57873001 80.27547897 68.58983307 81.2592099 68.60127258 82.27275085 C69.07021354 85.48025242 70.10795669 87.38835693 72 90 C74.84083641 91.42041821 76.85477278 91.31452272 80 91 C82.30275556 89.1329009 83.67823871 87.64352259 85 85 C85.11805177 83.4892243 85.17696449 81.97361169 85.20532227 80.45849609 C85.22526749 79.51767181 85.24521271 78.57684753 85.26576233 77.60751343 C85.28247482 76.58976837 85.29918732 75.57202332 85.31640625 74.5234375 C85.3475779 72.96286118 85.3475779 72.96286118 85.37937927 71.37075806 C85.44489872 68.03890751 85.50377092 64.7069765 85.5625 61.375 C85.60568294 59.11978326 85.64929715 56.86457473 85.69335938 54.609375 C85.80058252 49.07300236 85.90234446 43.53654922 86 38 C89.11055982 38.55693837 91.89128398 39.24228107 94.78271484 40.51538086 C95.48964478 40.82370346 96.19657471 41.13202606 96.92492676 41.44969177 C97.6793103 41.78469193 98.43369385 42.11969208 99.2109375 42.46484375 C100.40704651 42.98879478 100.40704651 42.98879478 101.62731934 43.52333069 C104.21195272 44.65673261 106.79348821 45.79700836 109.375 46.9375 C111.14318316 47.71466785 112.91157573 48.49135944 114.68017578 49.26757812 C118.17694394 50.80262976 121.67273562 52.33987483 125.16796875 53.87841797 C132.33330311 57.02899143 139.5201785 60.12984735 146.71240234 63.21850586 C147.54723145 63.57952393 148.38206055 63.94054199 149.2421875 64.3125 C149.9522998 64.61800781 150.66241211 64.92351562 151.39404297 65.23828125 C153 66 153 66 154 67 C154.09704641 69.24024643 154.12186656 71.48362054 154.12025452 73.72596741 C154.12153615 74.79305621 154.12153615 74.79305621 154.12284368 75.88170236 C154.12450057 78.28322048 154.11897374 80.68466988 154.11352539 83.08618164 C154.11324354 84.80059304 154.11340122 86.51500456 154.1139679 88.22941589 C154.11425594 92.89863973 154.10835804 97.56783812 154.10139394 102.23705602 C154.09516161 107.11111527 154.0945567 111.98517505 154.09336853 116.85923767 C154.09025486 126.0956943 154.08204098 135.33213915 154.07201904 144.56859058 C154.06085902 155.08110865 154.05534774 165.59362728 154.05032361 176.10614979 C154.0398584 197.73743978 154.02225826 219.36871915 154 241 C149.29796732 239.46484995 144.77796012 237.67620318 140.25390625 235.68359375 C139.50401932 235.35584457 138.75413239 235.0280954 137.98152161 234.69041443 C135.50747021 233.60847831 133.03501429 232.52294364 130.5625 231.4375 C128.80236927 230.66719894 127.04211305 229.89718458 125.28173828 229.12744141 C121.63572774 227.53288384 117.99025555 225.93710531 114.34521484 224.34033203 C107.1328229 221.18149844 99.91573299 218.0334625 92.69775391 214.88742065 C91.14447999 214.21039388 89.59125764 213.53324878 88.03808594 212.85598755 C70.45849476 205.19049446 52.86429622 197.55865966 35.26904297 189.92919922 C30.09958662 187.68761525 24.93103924 185.44394682 19.76300049 183.19909668 C17.14873196 182.06454722 14.53322171 180.93290667 11.91748047 179.80175781 C10.44363353 179.16222773 8.96983403 178.52258833 7.49609375 177.8828125 C6.83730728 177.59896698 6.17852081 177.31512146 5.49977112 177.02267456 C1.11382064 175.11382064 1.11382064 175.11382064 0 174 C-0.09704641 171.75975357 -0.12186656 169.51637946 -0.12025452 167.27403259 C-0.12153615 166.20694379 -0.12153615 166.20694379 -0.12284368 165.11829764 C-0.12450057 162.71677952 -0.11897374 160.31533012 -0.11352539 157.91381836 C-0.11324354 156.19940696 -0.11340122 154.48499544 -0.1139679 152.77058411 C-0.11425594 148.10136027 -0.10835804 143.43216188 -0.10139394 138.76294398 C-0.09516161 133.88888473 -0.0945567 129.01482495 -0.09336853 124.14076233 C-0.09025486 114.9043057 -0.08204098 105.66786085 -0.07201904 96.43140942 C-0.06085902 85.91889135 -0.05534774 75.40637272 -0.05032361 64.89385021 C-0.0398584 43.26256022 -0.02225826 21.63128085 0 0 Z " fill="#84CDFE" transform="translate(51,130)"/>
<path d="M0 0 C0.98870087 0.00081573 0.98870087 0.00081573 1.99737549 0.00164795 C12.98518911 0.04321429 22.98607267 1.00315509 33.4375 4.375 C34.11377441 4.58398926 34.79004883 4.79297852 35.48681641 5.00830078 C62.2760125 13.46904759 85.69055846 33.0605132 98.88671875 57.859375 C112.76886215 85.2385187 116.17625716 116.89878436 106.80419922 146.36621094 C101.44129815 162.31431373 92.79744545 176.0797297 81.4375 188.375 C80.78265625 189.11105469 80.1278125 189.84710938 79.453125 190.60546875 C66.24817074 204.74154158 47.86770721 214.23711753 29.4375 219.375 C28.35082031 219.6946875 27.26414062 220.014375 26.14453125 220.34375 C-2.37177073 227.43180665 -32.14368717 221.45550485 -57.37890625 207.33984375 C-83.05887577 191.49073373 -101.49516256 166.78910761 -108.5625 137.375 C-115.52240133 107.21945878 -109.37963693 76.54911152 -93.5625 50.375 C-77.28754935 25.23994109 -52.13362592 8.58358215 -23.13842773 1.80859375 C-15.43003854 0.22025856 -7.85362672 -0.01097851 0 0 Z M-65.5625 45.375 C-66.17609375 45.91382813 -66.7896875 46.45265625 -67.421875 47.0078125 C-81.72397223 60.06339667 -91.64879293 82.84723093 -92.70288086 101.91430664 C-93.65960364 130.4275085 -87.3454251 153.61610359 -68.0078125 175.23046875 C-52.11887845 191.92536323 -29.67479101 203.79661351 -6.32421875 204.61328125 C22.82338323 205.1445927 46.81319488 196.44781302 68.125 176 C86.98250518 156.54699465 94.02767 132.08122841 93.71875 105.58984375 C93.33874259 93.12370056 89.86033555 81.58536472 84.4375 70.375 C83.77621094 68.99248047 83.77621094 68.99248047 83.1015625 67.58203125 C79.4335635 60.39802215 74.79736539 54.37979228 69.4375 48.375 C68.29474609 47.08916016 68.29474609 47.08916016 67.12890625 45.77734375 C60.66856435 38.91389348 53.51809329 34.09024179 45.4375 29.375 C44.59445312 28.88128906 43.75140625 28.38757813 42.8828125 27.87890625 C6.66019907 8.3040596 -36.74294359 17.86542343 -65.5625 45.375 Z " fill="#85CEFE" transform="translate(366.5625,255.625)"/>
<path d="M0 0 C0.67936111 0.30212906 1.35872223 0.60425812 2.05867004 0.9155426 C4.26467671 1.89826487 6.46626761 2.89048683 8.66796875 3.8828125 C10.18832033 4.56199382 11.70899363 5.24045538 13.22998047 5.91821289 C16.29834175 7.28616825 19.36526185 8.6572783 22.43115234 10.03076172 C28.76745013 12.86630446 35.12375705 15.6558892 41.48046875 18.4453125 C43.51439149 19.33968783 45.54825322 20.23420191 47.58203125 21.12890625 C49.00649851 21.75523542 50.4309725 22.38154927 51.85546875 23.0078125 C51.85546875 23.6678125 51.85546875 24.3278125 51.85546875 25.0078125 C32.95298993 33.38544065 14.02156845 41.69097414 -4.96313477 49.88061523 C-15.42509891 54.39450465 -25.87389206 58.93766593 -36.31542969 63.49859619 C-49.36547507 69.19760502 -62.42290522 74.87941555 -75.5043335 80.506073 C-77.04257882 81.16806664 -78.58038854 81.83107351 -80.11773682 82.49514771 C-82.23345581 83.40864365 -84.35083424 84.31817355 -86.46875 85.2265625 C-87.66588623 85.74154297 -88.86302246 86.25652344 -90.09643555 86.78710938 C-96.32144894 89.28010633 -96.32144894 89.28010633 -99.73706055 88.15014648 C-100.72101807 87.68938721 -101.70497559 87.22862793 -102.71875 86.75390625 C-103.84635742 86.23546143 -104.97396484 85.7170166 -106.13574219 85.18286133 C-106.73737183 84.90004303 -107.33900146 84.61722473 -107.9588623 84.32583618 C-111.17544787 82.81381039 -114.40841649 81.33763572 -117.640625 79.859375 C-118.32041412 79.54746719 -119.00020325 79.23555939 -119.70059204 78.91419983 C-124.88492943 76.54803879 -130.11167268 74.29685302 -135.3671875 72.09375 C-136.12356003 71.7764241 -136.87993256 71.45909821 -137.65922546 71.13215637 C-140.64333706 69.88279323 -143.62868555 68.63665218 -146.6187439 67.40158081 C-148.69735012 66.54266878 -150.77264669 65.6761502 -152.84765625 64.80859375 C-154.04036133 64.31528564 -155.23306641 63.82197754 -156.46191406 63.3137207 C-159.14453125 62.0078125 -159.14453125 62.0078125 -160.14453125 60.0078125 C-139.52068688 50.90704939 -118.87717154 41.85833568 -98.14453125 33.0078125 C-84.76679269 27.29632835 -71.41698435 21.52632804 -58.10171509 15.67056274 C-55.49513992 14.52456719 -52.88767851 13.38060972 -50.2800293 12.23706055 C-43.06132714 9.06871013 -35.85130998 5.88619614 -28.67578125 2.62109375 C-27.06449341 1.89599609 -27.06449341 1.89599609 -25.4206543 1.15625 C-23.52826011 0.30319942 -21.641067 -0.56154961 -19.76098633 -1.44140625 C-18.55285278 -1.9828125 -18.55285278 -1.9828125 -17.3203125 -2.53515625 C-16.64911377 -2.84477295 -15.97791504 -3.15438965 -15.28637695 -3.47338867 C-9.85433483 -4.78914036 -4.86636938 -2.21294961 0 0 Z " fill="#C0E6FE" transform="translate(309.14453125,92.9921875)"/>
<path d="M0 0 C1.02116409 0.45319359 1.02116409 0.45319359 2.06295776 0.9155426 C4.27845073 1.89998123 6.49075659 2.8913746 8.703125 3.8828125 C10.22811863 4.56180563 11.75334831 5.24026884 13.27880859 5.91821289 C16.35769711 7.28699464 19.43555785 8.6580483 22.51269531 10.03076172 C28.85762148 12.85887326 35.21764837 15.65238077 41.578125 18.4453125 C43.61202267 19.33974483 45.64588163 20.2342652 47.6796875 21.12890625 C49.10415476 21.75523542 50.52862875 22.38154927 51.953125 23.0078125 C49.3222564 25.09266485 46.83228195 26.65041674 43.75244141 27.97802734 C42.51484322 28.51617821 42.51484322 28.51617821 41.25224304 29.06520081 C40.36204971 29.44587204 39.47185638 29.82654327 38.5546875 30.21875 C37.62167313 30.62274521 36.68865875 31.02674042 35.72737122 31.44297791 C32.67974653 32.76123621 29.62896622 34.0720176 26.578125 35.3828125 C24.45298606 36.30051536 22.3280688 37.21873173 20.20336914 38.13745117 C16.0005221 39.95390575 11.79651985 41.7676388 7.59130859 43.57861328 C0.8526567 46.48081749 -5.87861362 49.39985838 -12.609375 52.3203125 C-14.9127123 53.31781945 -17.21610078 54.31520821 -19.51953125 55.3125 C-26.73750891 58.43848812 -33.95275595 61.57076157 -41.16796875 64.703125 C-42.93099083 65.46845802 -42.93099083 65.46845802 -44.72962952 66.24925232 C-49.50605791 68.32273449 -54.28248362 70.39622253 -59.05862427 72.47036743 C-60.19371429 72.96330292 -61.32880432 73.4562384 -62.49829102 73.96411133 C-63.60793716 74.44617538 -64.71758331 74.92823944 -65.8608551 75.4249115 C-68.02275422 76.36273053 -70.18552664 77.29853932 -72.34922791 78.23219299 C-76.76471384 80.1383358 -81.17260341 82.05061341 -85.5390625 84.06689453 C-86.5066449 84.50612999 -86.5066449 84.50612999 -87.49377441 84.95423889 C-89.09917955 85.68586509 -90.69749677 86.43299519 -92.29492188 87.18188477 C-97.74482788 88.81753345 -102.20293239 86.7025454 -107.2109375 84.48828125 C-108.40315918 83.96580811 -109.59538086 83.44333496 -110.82373047 82.9050293 C-112.10646566 82.33516949 -113.38918003 81.76526284 -114.671875 81.1953125 C-115.99461193 80.61355984 -117.31769655 80.03259712 -118.64111328 79.45239258 C-120.69120004 78.55354115 -122.7410729 77.65423746 -124.78988647 76.75248718 C-132.14557391 73.51612911 -139.53227356 70.35326699 -146.921875 67.1953125 C-148.15189261 66.66895072 -149.3818741 66.14250452 -150.61181641 65.6159668 C-153.42323361 64.41261822 -156.23491582 63.20989391 -159.046875 62.0078125 C-159.046875 61.3478125 -159.046875 60.6878125 -159.046875 60.0078125 C-136.58226229 50.12678613 -114.10864776 40.26912017 -91.58007812 30.53466797 C-85.58851714 27.94544586 -79.59873882 25.35211239 -73.609375 22.7578125 C-72.41086914 22.23872314 -71.21236328 21.71963379 -69.97753906 21.18481445 C-57.31058653 15.69600322 -44.65707981 10.17631789 -32.00415039 4.65527344 C-31.19522339 4.30238251 -30.38629639 3.94949158 -29.55285645 3.58590698 C-28.0418617 2.92670928 -26.53095021 2.26732072 -25.0201416 1.60769653 C-23.66875032 1.01813768 -22.31576074 0.43222475 -20.96096802 -0.1494751 C-19.68270354 -0.71225304 -18.41553655 -1.3009254 -17.16085815 -1.91448975 C-10.44946781 -5.10946386 -6.40336217 -2.88835407 0 0 Z " fill="#C0E6FE" transform="translate(224.046875,55.9921875)"/>
<path d="M0 0 C3.63614014 2.49984634 4.77563041 4.00903433 5.75 8.3125 C3.68377512 18.47143898 -9.65583268 27.80046062 -16.83203125 34.96484375 C-18.27469741 36.40818434 -19.71721517 37.85167329 -21.15959167 39.29530334 C-24.16784301 42.30502225 -27.177879 45.31294157 -30.18920898 48.31958008 C-34.05413104 52.1787745 -37.91450484 56.04248267 -41.7735796 59.90752316 C-44.7442256 62.88177398 -47.71723833 65.85364981 -50.69098473 68.82480049 C-52.11632429 70.24947216 -53.54091914 71.67488928 -54.96476173 73.10105705 C-56.94651576 75.0853396 -58.93142756 77.06640733 -60.91723633 79.04663086 C-61.50684647 79.63826523 -62.0964566 80.2298996 -62.70393372 80.83946228 C-65.82740815 83.94661275 -67.65790395 85.72039666 -72 86.625 C-81.22136594 86.40295411 -92.39859034 70.75293936 -98.66235352 64.46801758 C-100.58689886 62.53803217 -102.51683759 60.61355268 -104.44726562 58.68945312 C-105.67480059 57.46125866 -106.90202602 56.23275474 -108.12890625 55.00390625 C-108.70484024 54.42999649 -109.28077423 53.85608673 -109.87416077 53.26478577 C-114.8790094 48.23007111 -114.8790094 48.23007111 -115.375 43.1875 C-115.31879192 39.75880687 -114.99773575 38.99670655 -112.9375 36 C-110 34 -110 34 -106.6875 33.25 C-97.46760942 35.12523198 -90.01447301 45.86672121 -83.5 52.4375 C-82.47679861 53.4657298 -81.45336267 54.49372626 -80.4296875 55.52148438 C-77.95042001 58.01164338 -75.47432462 60.50492833 -73 63 C-66.65510096 57.81578109 -60.93129555 52.04799875 -55.16580963 46.24097443 C-53.36057277 44.42285836 -51.55212903 42.6079862 -49.74285889 40.79388428 C-45.90907405 36.94873793 -42.07925926 33.09965255 -38.25 29.25 C-33.79651365 24.77289067 -29.3414031 20.29742263 -24.88207245 15.82613373 C-23.10131013 14.03889446 -21.32358681 12.24866962 -19.54595947 10.45831299 C-18.45689415 9.36561609 -17.36768872 8.27305881 -16.27832031 7.18066406 C-15.78581284 6.68299026 -15.29330536 6.18531647 -14.78587341 5.67256165 C-10.18280293 1.06878077 -6.66157679 -1.24418555 0 0 Z " fill="#0B67BB" transform="translate(422,324)"/>
</svg>
